<mxfile host="app.diagrams.net" modified="2024-06-30T12:22:37.439Z" agent="Mozilla/5.0 (X11; Ubuntu; Linux x86_64; rv:127.0) Gecko/20100101 Firefox/127.0" etag="_LDLTlBEqyna8GIwdWHB" version="24.6.4" type="github">
  <diagram name="Page-1" id="H4Rw2EulwQRjCxcxYLGu">
    <mxGraphModel dx="882" dy="821" grid="1" gridSize="10" guides="1" tooltips="1" connect="1" arrows="1" fold="1" page="1" pageScale="1" pageWidth="850" pageHeight="1100" math="0" shadow="0">
      <root>
        <mxCell id="0" />
        <mxCell id="1" parent="0" />
        <mxCell id="Lhvs7vtbH0vIH8BzOvIz-2" value="BACKEND ARCHITECTURE" style="text;html=1;align=center;verticalAlign=middle;whiteSpace=wrap;rounded=0;fontSize=20;" vertex="1" parent="1">
          <mxGeometry x="30" y="40" width="290" height="50" as="geometry" />
        </mxCell>
        <mxCell id="Lhvs7vtbH0vIH8BzOvIz-12" style="edgeStyle=orthogonalEdgeStyle;rounded=0;orthogonalLoop=1;jettySize=auto;html=1;entryX=0.5;entryY=0;entryDx=0;entryDy=0;" edge="1" parent="1" source="Lhvs7vtbH0vIH8BzOvIz-7" target="Lhvs7vtbH0vIH8BzOvIz-9">
          <mxGeometry relative="1" as="geometry" />
        </mxCell>
        <mxCell id="Lhvs7vtbH0vIH8BzOvIz-13" style="edgeStyle=orthogonalEdgeStyle;rounded=0;orthogonalLoop=1;jettySize=auto;html=1;entryX=0.5;entryY=0;entryDx=0;entryDy=0;" edge="1" parent="1" source="Lhvs7vtbH0vIH8BzOvIz-7" target="Lhvs7vtbH0vIH8BzOvIz-10">
          <mxGeometry relative="1" as="geometry" />
        </mxCell>
        <mxCell id="Lhvs7vtbH0vIH8BzOvIz-14" style="edgeStyle=orthogonalEdgeStyle;rounded=0;orthogonalLoop=1;jettySize=auto;html=1;entryX=0.5;entryY=0;entryDx=0;entryDy=0;" edge="1" parent="1" source="Lhvs7vtbH0vIH8BzOvIz-7" target="Lhvs7vtbH0vIH8BzOvIz-11">
          <mxGeometry relative="1" as="geometry" />
        </mxCell>
        <mxCell id="Lhvs7vtbH0vIH8BzOvIz-7" value="URL HANDLER" style="rounded=0;whiteSpace=wrap;html=1;" vertex="1" parent="1">
          <mxGeometry x="170" y="170" width="430" height="120" as="geometry" />
        </mxCell>
        <mxCell id="Lhvs7vtbH0vIH8BzOvIz-16" style="edgeStyle=orthogonalEdgeStyle;rounded=0;orthogonalLoop=1;jettySize=auto;html=1;entryX=0.5;entryY=0;entryDx=0;entryDy=0;" edge="1" parent="1" source="Lhvs7vtbH0vIH8BzOvIz-9" target="Lhvs7vtbH0vIH8BzOvIz-15">
          <mxGeometry relative="1" as="geometry" />
        </mxCell>
        <mxCell id="Lhvs7vtbH0vIH8BzOvIz-9" value="USER VIEW" style="rounded=0;whiteSpace=wrap;html=1;" vertex="1" parent="1">
          <mxGeometry x="30" y="400" width="230" height="80" as="geometry" />
        </mxCell>
        <mxCell id="Lhvs7vtbH0vIH8BzOvIz-10" value="PRODUCT VIEW" style="rounded=0;whiteSpace=wrap;html=1;" vertex="1" parent="1">
          <mxGeometry x="300" y="400" width="230" height="80" as="geometry" />
        </mxCell>
        <mxCell id="Lhvs7vtbH0vIH8BzOvIz-11" value="ORDER VIEW" style="rounded=0;whiteSpace=wrap;html=1;" vertex="1" parent="1">
          <mxGeometry x="570" y="400" width="230" height="80" as="geometry" />
        </mxCell>
        <mxCell id="Lhvs7vtbH0vIH8BzOvIz-15" value="USER ORM" style="rounded=0;whiteSpace=wrap;html=1;" vertex="1" parent="1">
          <mxGeometry x="30" y="530" width="230" height="80" as="geometry" />
        </mxCell>
        <mxCell id="Lhvs7vtbH0vIH8BzOvIz-18" value="USER" style="strokeWidth=2;html=1;shape=mxgraph.flowchart.database;whiteSpace=wrap;" vertex="1" parent="1">
          <mxGeometry x="110" y="700" width="90" height="90" as="geometry" />
        </mxCell>
        <mxCell id="Lhvs7vtbH0vIH8BzOvIz-19" style="edgeStyle=orthogonalEdgeStyle;rounded=0;orthogonalLoop=1;jettySize=auto;html=1;entryX=0.5;entryY=0;entryDx=0;entryDy=0;entryPerimeter=0;" edge="1" parent="1" source="Lhvs7vtbH0vIH8BzOvIz-15" target="Lhvs7vtbH0vIH8BzOvIz-18">
          <mxGeometry relative="1" as="geometry" />
        </mxCell>
      </root>
    </mxGraphModel>
  </diagram>
</mxfile>
